<svg xmlns="http://www.w3.org/2000/svg" width="18" height="21" viewBox="0 0 18 21"><defs><style>.a{fill:#008db9;}</style></defs><g transform="translate(0 -0.321)"><path class="a" d="M9,21a22.4,22.4,0,0,1-6.368-.86A3.924,3.924,0,0,1,0,16.119c0-1.372,1.112-2.546,3.307-3.489.093.174.194.354.31.55,1.486,2.5,3.4,3.883,5.384,3.883s3.9-1.379,5.384-3.883c.1-.173.207-.357.309-.548,2.2.945,3.307,2.118,3.307,3.488a3.924,3.924,0,0,1-2.632,4.021A22.4,22.4,0,0,1,9,21Zm0-6c-1.512,0-2.969-1.051-4.1-2.959A15.1,15.1,0,0,1,3,4.541C3,2.037,5.691,0,9,0s6,2.037,6,4.541a15.1,15.1,0,0,1-1.9,7.5C11.97,13.95,10.513,15,9,15Z" transform="translate(0 0.321)"/></g></svg>