<svg xmlns="http://www.w3.org/2000/svg" width="18" height="22" viewBox="0 0 18 22"><defs><style>.a{fill:#008db9;}</style></defs><g transform="translate(0.1 -0.048)"><g transform="translate(0 -0.078)"><path class="a" d="M15.75,22H2.25A2.228,2.228,0,0,1,0,19.8V2.2A2.228,2.228,0,0,1,2.25,0h7.875V5.5a2.228,2.228,0,0,0,2.25,2.2H18V19.8A2.228,2.228,0,0,1,15.75,22ZM4.5,15.675a.825.825,0,1,0,0,1.65H9a.825.825,0,1,0,0-1.65Zm0-3.3a.825.825,0,1,0,0,1.65h9a.825.825,0,1,0,0-1.65Zm0-3.3a.825.825,0,1,0,0,1.649h9a.825.825,0,1,0,0-1.649Zm0-3.3a.825.825,0,1,0,0,1.65H9a.825.825,0,1,0,0-1.65ZM17.456,6.6H12.938A1.671,1.671,0,0,1,11.25,4.95V.531a.226.226,0,0,1,.384-.155l5.982,5.849a.214.214,0,0,1,.049.24A.222.222,0,0,1,17.456,6.6Z" transform="translate(-0.1 0.126)"/></g></g></svg>