<svg xmlns="http://www.w3.org/2000/svg" width="24" height="24" viewBox="0 0 24 24"><defs><style>.a{fill:#008db9;}</style></defs><g transform="translate(0 -0.321)"><g transform="translate(0 0)"><path class="a" d="M12,24A12,12,0,0,1,3.515,3.515a12,12,0,1,1,16.97,16.97A11.922,11.922,0,0,1,12,24ZM5.25,14.25a.75.75,0,0,0,0,1.5H6.844a3,3,0,0,0,5.811,0h6.094a.75.75,0,1,0,0-1.5H12.656a3,3,0,0,0-5.811,0Zm0-6a.75.75,0,1,0,0,1.5h6.095a3,3,0,0,0,5.811,0h1.594a.75.75,0,1,0,0-1.5H17.156a3,3,0,0,0-5.811,0Z" transform="translate(0 0.321)"/></g></g></svg>