<svg xmlns="http://www.w3.org/2000/svg" width="24" height="21.297" viewBox="0 0 24 21.297"><defs><style>.a{fill:#008db9;}</style></defs><g transform="translate(0)"><path class="a" d="M16,16.3V6.57L9.345.52a2,2,0,0,0-2.691,0L.982,5.677A3,3,0,0,0,0,7.9v8.4a3,3,0,0,0,3,3H5v-5a2,2,0,0,1,2-2H9a2,2,0,0,1,2,2v5h2A3,3,0,0,0,16,16.3Z" transform="translate(4 1)"/><path class="a" d="M17,19.3a2,2,0,0,0,2-2h2a4,4,0,0,1-4,4Zm-2,2v0a1,1,0,0,1-1-1v-5h2v4h1v2Zm-8,0v-2H8v-4a3,3,0,0,1,3-3v2a1,1,0,0,0-1,1v5a1,1,0,0,1-1,1Zm-4-4H5a2,2,0,0,0,2,2v2A4,4,0,0,1,3,17.3Zm16,0V8.012L12.673,2.26a1,1,0,0,0-1.345,0L9.982.78a3,3,0,0,1,4.036,0L19,5.309V3.8h2v3.33l2.673,2.43a1,1,0,1,1-1.346,1.48L21,9.83V17.3Zm-16,0V9.831L1.673,11.037A1,1,0,1,1,.328,9.557L4.3,5.945l.008-.007h0L9.982.78l1.345,1.48L5.647,7.424A2,2,0,0,0,5,8.9H5v8.4Zm11-2a1,1,0,0,0-1-1v-2a3,3,0,0,1,3,3Zm-3-1v-2h2v2ZM19,3.8a1,1,0,1,1,2,0Z" transform="translate(0)"/></g></svg>