<svg xmlns="http://www.w3.org/2000/svg" width="22" height="16" viewBox="0 0 22 16"><defs><style>.a{fill:#008db9;}</style></defs><g transform="translate(0 0.365)"><g transform="translate(0)"><path class="a" d="M19.5,16H2.5A2.5,2.5,0,0,1,0,13.5V2.5A2.5,2.5,0,0,1,2.5,0h17A2.5,2.5,0,0,1,22,2.5v11A2.5,2.5,0,0,1,19.5,16ZM14,9.06h0L18.97,14.03a.75.75,0,0,0,1.061-1.06L15.061,8l4.97-4.97A.75.75,0,1,0,18.97,1.97l-5.5,5.5L11.177,9.762a.249.249,0,0,1-.354,0L8.531,7.471l-5.5-5.5A.75.75,0,1,0,1.97,3.03L6.939,8,1.97,12.97a.75.75,0,1,0,1.06,1.06L8,9.06l1.762,1.763a1.751,1.751,0,0,0,2.475,0L14,9.061Z" transform="translate(0 -0.365)"/></g></g></svg>