<svg xmlns="http://www.w3.org/2000/svg" width="24" height="24" viewBox="0 0 24 24"><defs><style>.a{fill:#008db9;}</style></defs><g transform="translate(0 -0.325)"><g transform="translate(0)"><path class="a" d="M12,24A12,12,0,0,1,3.515,3.515a12,12,0,1,1,16.97,16.97A11.922,11.922,0,0,1,12,24Zm4-10.75A2.753,2.753,0,0,0,13.25,16v2a.75.75,0,0,0,1.5,0V16A1.251,1.251,0,0,1,16,14.75h2a.75.75,0,0,0,0-1.5Zm-10,0a.75.75,0,1,0,0,1.5H8A1.251,1.251,0,0,1,9.25,16v2a.75.75,0,1,0,1.5,0V16A2.753,2.753,0,0,0,8,13.25Zm8-8A.751.751,0,0,0,13.25,6V8A2.753,2.753,0,0,0,16,10.749h2a.75.75,0,1,0,0-1.5H16A1.251,1.251,0,0,1,14.75,8V6A.751.751,0,0,0,14,5.25Zm-8,4a.75.75,0,1,0,0,1.5H8A2.753,2.753,0,0,0,10.749,8V6a.75.75,0,1,0-1.5,0V8A1.251,1.251,0,0,1,8,9.25Z" transform="translate(0 0.326)"/></g></g></svg>