<svg xmlns="http://www.w3.org/2000/svg" width="24" height="24" viewBox="0 0 24 24"><defs><style>.a{fill:#008db9;}</style></defs><path class="a" d="M20.485,3.515A12,12,0,0,0,3.515,20.485,12,12,0,0,0,20.485,3.515ZM12,11.25a3.375,3.375,0,0,1,.923,6.621.236.236,0,0,0-.173.226v.632a.764.764,0,0,1-.714.77.75.75,0,0,1-.786-.749V18.1a.235.235,0,0,0-.172-.226,3.38,3.38,0,0,1-2.453-3.225.762.762,0,0,1,.728-.771.75.75,0,0,1,.772.75A1.875,1.875,0,1,0,12,12.75a3.375,3.375,0,0,1-.923-6.621A.236.236,0,0,0,11.25,5.9V5.271a.764.764,0,0,1,.714-.77.75.75,0,0,1,.786.749V5.9a.235.235,0,0,0,.172.226,3.38,3.38,0,0,1,2.453,3.225.762.762,0,0,1-.728.771.75.75,0,0,1-.772-.75A1.875,1.875,0,1,0,12,11.25Z"/></svg>