<svg xmlns="http://www.w3.org/2000/svg" width="18" height="20.401" viewBox="0 0 18 20.401"><defs><style>.a{fill:#008db9;}</style></defs><g transform="translate(-30.137)"><g transform="translate(37.348 0.166)"><g transform="translate(0)"><path class="a" d="M226.35,12.565l-8.108-8.109a1.219,1.219,0,1,0-1.724,1.723l8.109,8.108a1.218,1.218,0,1,0,1.722-1.722Z" transform="translate(-216.163 -4.1)"/></g></g><g transform="translate(34.304 3.239)"><g transform="translate(0)"><path class="a" d="M140.443,82.9l-.061.306a13.092,13.092,0,0,1-2.887,5.848l4.411,4.411a13.049,13.049,0,0,1,5.82-2.916l.306-.061Z" transform="translate(-137.494 -82.905)"/></g></g><g transform="translate(30.136 10.048)"><g transform="translate(0)"><path class="a" d="M33.686,256.989,30.671,260a1.827,1.827,0,0,0,0,2.584l1.722,1.722a1.827,1.827,0,0,0,2.584,0l3.014-3.014Zm.431,4.737a.609.609,0,0,1-.861-.861l.861-.861a.609.609,0,1,1,.861.861Z" transform="translate(-30.136 -256.989)"/></g></g><g transform="translate(36.53 13.665)"><path class="a" d="M195.648,350.1l.828-.828a1.825,1.825,0,0,0,0-2.583l-.615-.616a11.537,11.537,0,0,0-.981.742l.735.736a.608.608,0,0,1,0,.861l-.842.842-1.238-1.2-1.722,1.722,2.763,2.678a1.218,1.218,0,0,0,1.722-1.724Z" transform="translate(-191.813 -346.075)"/></g><g transform="translate(42.143)"><g transform="translate(0)"><path class="a" d="M332.473,0a.609.609,0,0,0-.609.609V1.827a.609.609,0,1,0,1.218,0V.609A.609.609,0,0,0,332.473,0Z" transform="translate(-331.864)"/></g></g><g transform="translate(45.7 4.776)"><path class="a" d="M423.691,120h-1.218a.609.609,0,0,0,0,1.218h1.218a.609.609,0,0,0,0-1.218Z" transform="translate(-421.864 -120)"/></g><g transform="translate(44.482 1.218)"><path class="a" d="M394.121,30.178a.609.609,0,0,0-.861,0L392.042,31.4a.609.609,0,1,0,.861.861l1.218-1.218A.609.609,0,0,0,394.121,30.178Z" transform="translate(-391.864 -30)"/></g></g></svg>