<svg xmlns="http://www.w3.org/2000/svg" width="18" height="24" viewBox="0 0 18 24"><defs><style>.a{opacity:0.9;}.b{fill:#008db9;}</style></defs><g class="a" transform="translate(-64)"><g transform="translate(75.984)"><g transform="translate(0)"><path class="b" d="M320,0V6.016h6.016Z" transform="translate(-320)"/></g></g><g transform="translate(64)"><g transform="translate(0)"><path class="b" d="M76,7.5A1.5,1.5,0,0,1,74.5,6V0h-9A1.5,1.5,0,0,0,64,1.5v21A1.5,1.5,0,0,0,65.5,24h15A1.5,1.5,0,0,0,82,22.5V7.5ZM70,21H67V16.5h3Zm4.5,0h-3V13.5h3ZM79,21H76V10.5h3Z" transform="translate(-64)"/></g></g></g></svg>