<svg xmlns="http://www.w3.org/2000/svg" width="24" height="18.771" viewBox="0 0 24 18.771"><defs><style>.a{fill:#008db9;}</style></defs><g transform="translate(0 -53.063)"><path class="a" d="M6.473,71.294a1.844,1.844,0,0,0,2.607,0l8.925-8.925a2.614,2.614,0,0,0,.582-.887,9.384,9.384,0,0,0,2.538.379c1.9-.01,2.533-.843,2.74-1.34s.355-1.528-.981-2.888l-.044-.044a10.67,10.67,0,0,0-3.4-2.159c-.251-.1-.5-.2-.749-.286v-.015A2.018,2.018,0,0,0,16.7,53.138l-5.347-.074a2.6,2.6,0,0,0-1.888.769L.54,62.758a1.844,1.844,0,0,0,0,2.607Zm6.88-15.036a1.525,1.525,0,0,1,2.587,1.3,10.638,10.638,0,0,0,2.035,1.109c.266.108.522.207.769.291l-.03-2.149.128.054a9.289,9.289,0,0,1,2.893,1.823l.03.03c.641.655.71,1.074.655,1.2-.168.4-1.966.754-4.7-.384a10.54,10.54,0,0,1-2.154-1.2c-.02.025-.044.049-.064.074a1.523,1.523,0,1,1-2.154-2.154Z"/></g></svg>