<svg xmlns="http://www.w3.org/2000/svg" width="22.727" height="22.727" viewBox="0 0 22.727 22.727"><defs><style>.a{fill:#70b843;}.b{fill:none;stroke:#fff;stroke-linecap:round;stroke-linejoin:round;stroke-width:1.3px;}</style></defs><circle class="a" cx="11.364" cy="11.364" r="11.364"/><g transform="translate(6.691 6.836)"><g transform="translate(5.579 9.055)"><path class="b" d="M0,.5H3.766" transform="translate(0 -0.5)"/></g><path class="b" d="M5.077.411A1.169,1.169,0,0,1,6.7.255l.9.7A1.11,1.11,0,0,1,7.969,2.5c-.018.031-4.951,6.2-4.951,6.2a.884.884,0,0,1-.68.332L.448,9.055l-.426-1.8a.838.838,0,0,1,.164-.722Z" transform="translate(0 0)"/><g transform="translate(4.164 1.558)"><path class="b" d="M0,0,2.831,2.175"/></g></g></svg>