<svg xmlns="http://www.w3.org/2000/svg" width="12.771" height="12.536" viewBox="0 0 12.771 12.536"><defs><style>.a{fill:none;stroke:#008db9;stroke-linecap:round;stroke-linejoin:round;stroke-width:1.5px;}</style></defs><g transform="translate(0.756 0.871)"><g transform="translate(6.726 10.915)"><path class="a" d="M0,.5H4.539" transform="translate(0 -0.5)"/></g><path class="a" d="M6.121.495A1.409,1.409,0,0,1,8.071.307l1.085.845a1.338,1.338,0,0,1,.451,1.865c-.021.038-5.969,7.473-5.969,7.473a1.065,1.065,0,0,1-.819.4L.54,10.915.027,8.744a1.01,1.01,0,0,1,.2-.87Z" transform="translate(0 0)"/><g transform="translate(5.02 1.878)"><path class="a" d="M0,0,3.412,2.622"/></g></g></svg>